<svg xmlns="http://www.w3.org/2000/svg" xmlns:svg="http://www.w3.org/2000/svg" xmlns:xlink="http://www.w3.org/1999/xlink" id="svg5378" width="212.598" height="212.598" version="1.1" style="enable-background:new"><defs id="defs3"><linearGradient id="linearGradient4439"><stop style="stop-color:#00905f;stop-opacity:1" id="stop4441" offset="0"/><stop id="stop4447" offset=".319" style="stop-color:#008558;stop-opacity:1"/><stop style="stop-color:#005136;stop-opacity:1" id="stop4443" offset="1"/></linearGradient><linearGradient id="linearGradient4339"><stop id="stop4341" offset="0" style="stop-color:#0f0;stop-opacity:1"/><stop id="stop4343" offset="1" style="stop-color:#00fd00;stop-opacity:.25225225"/></linearGradient><linearGradient id="linearGradient3894"><stop style="stop-color:#cacaca;stop-opacity:1" id="stop3896" offset="0"/><stop style="stop-color:#909090;stop-opacity:1" id="stop3898" offset="1"/></linearGradient><linearGradient id="linearGradient3872"><stop style="stop-color:#707070;stop-opacity:1" id="stop3874" offset="0"/><stop style="stop-color:#000;stop-opacity:1" id="stop3876" offset="1"/></linearGradient><linearGradient id="linearGradient6035"><stop style="stop-color:#fff;stop-opacity:1" id="stop6037" offset="0"/><stop style="stop-color:#fff;stop-opacity:0" id="stop6039" offset="1"/></linearGradient><linearGradient id="linearGradient5495"><stop id="stop5497" offset="0" style="stop-color:#c6c6c6;stop-opacity:1"/><stop style="stop-color:#e3e3e3;stop-opacity:1" id="stop5501" offset=".205"/><stop id="stop5499" offset="1" style="stop-color:#a5a5a8;stop-opacity:1"/></linearGradient><linearGradient id="linearGradient5474"><stop style="stop-color:#c3c3c3;stop-opacity:1" id="stop5476" offset="0"/><stop id="stop5482" offset=".388" style="stop-color:#808184;stop-opacity:1"/><stop style="stop-color:#7f7f84;stop-opacity:1" id="stop5484" offset=".571"/><stop id="stop5486" offset=".897" style="stop-color:#a5a6aa;stop-opacity:1"/><stop style="stop-color:#9b9b9e;stop-opacity:1" id="stop5478" offset="1"/></linearGradient><linearGradient id="linearGradient5466"><stop style="stop-color:#e3e3e3;stop-opacity:1" id="stop5468" offset="0"/><stop style="stop-color:#a5a5a8;stop-opacity:1" id="stop5470" offset="1"/></linearGradient><linearGradient id="linearGradient5472" x1="282.357" x2="286.631" y1="518.557" y2="527.335" gradientUnits="userSpaceOnUse" xlink:href="#linearGradient5466"/><linearGradient id="linearGradient5480" x1="288.399" x2="327.793" y1="532.007" y2="532.007" gradientUnits="userSpaceOnUse" xlink:href="#linearGradient5474"/><linearGradient id="linearGradient5490" x1="282.357" x2="286.631" y1="518.557" y2="527.335" gradientTransform="matrix(1.1818182,0,0,1.1818182,-30.64896,-69.394391)" gradientUnits="userSpaceOnUse" xlink:href="#linearGradient5466"/><linearGradient id="linearGradient5493" x1="269.97" x2="286.628" y1="511.966" y2="511.966" gradientTransform="matrix(1.1818182,0,0,1.1818182,-30.64896,-69.394391)" gradientUnits="userSpaceOnUse" spreadMethod="reflect" xlink:href="#linearGradient5495"/><linearGradient id="linearGradient6015" x1="282.357" x2="286.631" y1="518.557" y2="527.335" gradientTransform="matrix(1.1818182,0,0,1.1818182,-31.65912,-123.63805)" gradientUnits="userSpaceOnUse" xlink:href="#linearGradient5466"/><linearGradient id="linearGradient6041" x1="308.5" x2="327.781" y1="522.612" y2="520.328" gradientTransform="translate(0,0.25)" gradientUnits="userSpaceOnUse" spreadMethod="reflect" xlink:href="#linearGradient6035"/><linearGradient id="linearGradient6045" x1="308.5" x2="327.781" y1="522.612" y2="520.328" gradientTransform="translate(0,16)" gradientUnits="userSpaceOnUse" spreadMethod="reflect" xlink:href="#linearGradient6035"/><linearGradient id="linearGradient6049" x1="308.5" x2="327.781" y1="522.612" y2="520.328" gradientTransform="translate(0,15.417003)" gradientUnits="userSpaceOnUse" spreadMethod="reflect" xlink:href="#linearGradient6035"/><linearGradient id="linearGradient6052" x1="308.5" x2="327.781" y1="522.612" y2="520.328" gradientTransform="translate(0,12)" gradientUnits="userSpaceOnUse" spreadMethod="reflect" xlink:href="#linearGradient6035"/><linearGradient id="linearGradient6056" x1="308.5" x2="327.781" y1="522.612" y2="520.328" gradientTransform="translate(0,22)" gradientUnits="userSpaceOnUse" spreadMethod="reflect" xlink:href="#linearGradient6035"/><linearGradient id="linearGradient6064" x1="308.5" x2="327.781" y1="522.612" y2="520.328" gradientTransform="translate(0,28)" gradientUnits="userSpaceOnUse" spreadMethod="reflect" xlink:href="#linearGradient6035"/><linearGradient id="linearGradient6077" x1="308.5" x2="327.781" y1="522.612" y2="520.328" gradientTransform="translate(0,12)" gradientUnits="userSpaceOnUse" spreadMethod="reflect" xlink:href="#linearGradient6035"/><filter id="filter6093" width="1.129" height="1.386" x="-.064" y="-.193" color-interpolation-filters="sRGB"><feGaussianBlur id="feGaussianBlur6095" stdDeviation=".893"/></filter><linearGradient id="linearGradient6110" x1="269.97" x2="286.628" y1="511.966" y2="511.966" gradientTransform="matrix(1.1818182,0,0,1.1818182,-30.64896,-69.394391)" gradientUnits="userSpaceOnUse" spreadMethod="reflect" xlink:href="#linearGradient5495"/><linearGradient id="linearGradient6112" x1="282.357" x2="286.631" y1="518.557" y2="527.335" gradientUnits="userSpaceOnUse" xlink:href="#linearGradient5466"/><linearGradient id="linearGradient6114" x1="308.5" x2="327.781" y1="522.612" y2="520.328" gradientTransform="translate(0,0.25)" gradientUnits="userSpaceOnUse" spreadMethod="reflect" xlink:href="#linearGradient6035"/><linearGradient id="linearGradient6116" x1="308.5" x2="327.781" y1="522.612" y2="520.328" gradientTransform="translate(0,12)" gradientUnits="userSpaceOnUse" spreadMethod="reflect" xlink:href="#linearGradient6035"/><linearGradient id="linearGradient6118" x1="308.5" x2="327.781" y1="522.612" y2="520.328" gradientTransform="translate(0,22)" gradientUnits="userSpaceOnUse" spreadMethod="reflect" xlink:href="#linearGradient6035"/><linearGradient id="linearGradient3906" x1="54.2" x2="185.3" y1="72.824" y2="206.324" gradientTransform="matrix(0.98592546,0,0,0.98592546,1.6854267,1.9609254)" gradientUnits="userSpaceOnUse" xlink:href="#linearGradient3894"/><radialGradient id="radialGradient3908" cx="101.522" cy="200.945" r="65.25" fx="101.522" fy="200.945" gradientTransform="matrix(0,-1.8059456,1.4680969,4.0872294e-6,-172.50741,411.4166)" gradientUnits="userSpaceOnUse" xlink:href="#linearGradient3872"/><filter id="filter3946" color-interpolation-filters="sRGB"><feFlood id="feFlood3948" flood-color="#000" flood-opacity=".5" result="flood"/><feComposite id="feComposite3950" in="flood" in2="SourceGraphic" operator="in" result="composite1"/><feGaussianBlur id="feGaussianBlur3952" result="blur" stdDeviation="4"/><feOffset id="feOffset3954" dx="0" dy="0" result="offset"/><feComposite id="feComposite3956" in="SourceGraphic" in2="offset" operator="over" result="composite2"/></filter><filter id="filter3946-1" color-interpolation-filters="sRGB"><feFlood id="feFlood3948-7" flood-color="#000" flood-opacity=".5" result="flood"/><feComposite id="feComposite3950-4" in="flood" in2="SourceGraphic" operator="in" result="composite1"/><feGaussianBlur id="feGaussianBlur3952-0" result="blur" stdDeviation="4"/><feOffset id="feOffset3954-9" dx="0" dy="0" result="offset"/><feComposite id="feComposite3956-4" in="SourceGraphic" in2="offset" operator="over" result="composite2"/></filter><linearGradient id="linearGradient3894-8"><stop style="stop-color:#cacaca;stop-opacity:1" id="stop3896-2" offset="0"/><stop style="stop-color:#909090;stop-opacity:1" id="stop3898-4" offset="1"/></linearGradient><radialGradient id="radialGradient3908-5" cx="101.522" cy="200.945" r="65.25" fx="101.522" fy="200.945" gradientTransform="matrix(0,-1.8059456,1.4680969,4.0872294e-6,-172.50741,411.4166)" gradientUnits="userSpaceOnUse" xlink:href="#linearGradient3872-5"/><linearGradient id="linearGradient3872-5"><stop style="stop-color:#707070;stop-opacity:1" id="stop3874-1" offset="0"/><stop style="stop-color:#000;stop-opacity:1" id="stop3876-7" offset="1"/></linearGradient><filter id="filter4063" color-interpolation-filters="sRGB"><feGaussianBlur id="feGaussianBlur4065" stdDeviation="1.827"/></filter><clipPath id="clipPath4067" clipPathUnits="userSpaceOnUse"><g id="g4069" clip-path="none" mask="none" transform="matrix(0.20414326,0,0,0.20414326,288.74735,512.9241)" style="filter:url(#filter4063)"><rect style="fill:url(#linearGradient4073);fill-opacity:1;fill-rule:evenodd;stroke:none" id="rect4071" width="140.101" height="140.101" x="49.7" y="69.274" rx="6.89" ry="6.89"/></g></clipPath><linearGradient id="linearGradient4073" x1="54.2" x2="185.3" y1="72.824" y2="206.324" gradientTransform="matrix(0.98592546,0,0,0.98592546,1.6854267,1.9609254)" gradientUnits="userSpaceOnUse" xlink:href="#linearGradient3894-8"/><filter id="filter4252" color-interpolation-filters="sRGB"><feGaussianBlur id="feGaussianBlur4254" stdDeviation=".868"/></filter><radialGradient id="radialGradient3908-2" cx="101.522" cy="200.945" r="65.25" fx="101.522" fy="200.945" gradientTransform="matrix(0,-1.8059456,1.4680969,4.0872294e-6,-172.50741,411.4166)" gradientUnits="userSpaceOnUse" xlink:href="#linearGradient3872-7"/><linearGradient id="linearGradient3872-7"><stop style="stop-color:#707070;stop-opacity:1" id="stop3874-6" offset="0"/><stop style="stop-color:#000;stop-opacity:1" id="stop3876-1" offset="1"/></linearGradient><clipPath id="clipPath4316" clipPathUnits="userSpaceOnUse"><rect id="rect4318" width="27.981" height="27.981" x="299.156" y="527.329" rx=".766" ry=".766" style="fill:url(#radialGradient4320);fill-opacity:1;fill-rule:evenodd;stroke:none;display:inline"/></clipPath><radialGradient id="radialGradient4320" cx="101.522" cy="200.945" r="65.25" fx="101.522" fy="200.945" gradientTransform="matrix(0,-0.39021385,0.31721427,8.8313486e-7,249.99833,600.11109)" gradientUnits="userSpaceOnUse" xlink:href="#linearGradient3872-7"/><radialGradient id="radialGradient4353" cx="307.84" cy="549.011" r="19.703" fx="307.84" fy="549.011" gradientTransform="matrix(1.012375,-9.3973301e-7,4.8493236e-7,0.52241796,-3.8097766,248.25377)" gradientUnits="userSpaceOnUse" xlink:href="#linearGradient4339"/><filter id="filter4411" color-interpolation-filters="sRGB"><feGaussianBlur id="feGaussianBlur4413" stdDeviation=".506"/></filter><filter id="filter4433" color-interpolation-filters="sRGB"><feGaussianBlur id="feGaussianBlur4435" stdDeviation=".434"/></filter><filter id="filter4509" color-interpolation-filters="sRGB"><feGaussianBlur id="feGaussianBlur4511" stdDeviation=".434"/></filter><filter id="filter4537" color-interpolation-filters="sRGB"><feGaussianBlur id="feGaussianBlur4539" stdDeviation=".94"/></filter><linearGradient id="linearGradient4571" x1="282.357" x2="286.631" y1="518.557" y2="527.335" gradientUnits="userSpaceOnUse" xlink:href="#linearGradient5466"/><linearGradient id="linearGradient4573" x1="308.5" x2="327.781" y1="522.612" y2="520.328" gradientTransform="translate(0,0.25)" gradientUnits="userSpaceOnUse" spreadMethod="reflect" xlink:href="#linearGradient6035"/><radialGradient id="radialGradient4815" cx="77.782" cy="98.24" r="13.435" fx="77.782" fy="98.24" gradientTransform="matrix(0.33840749,2.8886019e-8,-2.2808912e-8,0.38227523,279.02057,497.37008)" gradientUnits="userSpaceOnUse" xlink:href="#linearGradient4439"/><radialGradient id="radialGradient4817" cx="77.782" cy="98.24" r="13.435" fx="77.782" fy="98.24" gradientTransform="matrix(0.33840749,1.9415193e-8,-2.2808912e-8,0.25693909,293.67045,508.84121)" gradientUnits="userSpaceOnUse" xlink:href="#linearGradient4439"/><radialGradient id="radialGradient4819" cx="77.782" cy="98.24" r="13.435" fx="77.782" fy="98.24" gradientTransform="matrix(0.33840749,2.5097688e-8,-2.2808912e-8,0.33214077,288.86185,514.55889)" gradientUnits="userSpaceOnUse" xlink:href="#linearGradient4439"/><radialGradient id="radialGradient4821" cx="77.782" cy="98.24" r="13.435" fx="77.782" fy="98.24" gradientTransform="matrix(0.33840749,1.7521027e-8,-2.2808912e-8,0.23187186,271.56706,527.0049)" gradientUnits="userSpaceOnUse" xlink:href="#linearGradient4439"/><radialGradient id="radialGradient4823" cx="307.84" cy="549.011" r="19.703" fx="307.84" fy="549.011" gradientTransform="matrix(1.012375,-9.3973301e-7,4.8493236e-7,0.52241796,-3.8097766,248.25377)" gradientUnits="userSpaceOnUse" xlink:href="#linearGradient4339"/><radialGradient id="radialGradient4825" cx="307.84" cy="549.011" r="19.703" fx="307.84" fy="549.011" gradientTransform="matrix(1.012375,-9.3973301e-7,4.8493236e-7,0.52241796,-3.8097766,248.25377)" gradientUnits="userSpaceOnUse" xlink:href="#linearGradient4339"/><radialGradient id="radialGradient4827" cx="308.078" cy="559.011" r="19.703" fx="308.078" fy="559.011" gradientTransform="matrix(1.1389929,4.170352e-7,-1.5122915e-7,0.41303212,-42.82059,314.17707)" gradientUnits="userSpaceOnUse" spreadMethod="reflect" xlink:href="#linearGradient4339"/><radialGradient id="radialGradient4829" cx="308.166" cy="565.302" r="19.563" fx="308.166" fy="565.302" gradientTransform="matrix(1.1466604,-1.0822482e-7,2.7739554e-8,0.29390528,-45.180576,388.4689)" gradientUnits="userSpaceOnUse" xlink:href="#linearGradient4339"/></defs><metadata id="metadata4"/><g id="layer1" transform="translate(-285.86708,-504.16403)" style="display:inline"><g id="g6097" transform="matrix(4.1992341,0,0,4.1992341,-906.55576,-1633.811)"><path style="fill:#2e3436;fill-opacity:1;stroke:none;filter:url(#filter6093)" id="path6079" d="m 303.29832,521.77954 c 0,3.06841 -7.46231,5.55584 -16.66752,5.55584 -9.20522,0 -16.66752,-2.48743 -16.66752,-5.55584 0,-3.0684 7.4623,-5.55584 16.66752,-5.55584 9.20521,0 16.66752,2.48744 16.66752,5.55584 z" transform="matrix(1.1818182,0,0,1.1818182,-30.64896,-65.983596)"/><path id="path5488" d="m 288.40625,517.5 0,30.09191 0.125,0 c -0.0806,0.24126 -0.125,0.47032 -0.125,0.71875 0,3.6263 8.80861,6.5625 19.6875,6.5625 10.87889,0 19.6875,-2.9362 19.6875,-6.5625 0,-0.24879 -0.0442,-0.47715 -0.125,-0.71875 l 0.125,0 0,-30.09191 -39.375,0 z" style="fill:url(#linearGradient6110);fill-opacity:1;stroke:none"/><path id="path5460" d="m 303.29832,521.77954 c 0,3.06841 -7.46231,5.55584 -16.66752,5.55584 -9.20522,0 -16.66752,-2.48743 -16.66752,-5.55584 0,-3.0684 7.4623,-5.55584 16.66752,-5.55584 9.20521,0 16.66752,2.48744 16.66752,5.55584 z" transform="matrix(1.1818182,0,0,1.1818182,-30.64896,-99.394391)" style="fill:url(#linearGradient4571);fill-opacity:1;stroke:none"/><path id="path6026" d="m 288.375,539.09375 c 0.14735,3.58398 8.93182,6.46875 19.71875,6.46875 10.75628,0 19.4918,-2.86766 19.6875,-6.4375 -3.45152,2.93589 -10.95919,4.96875 -19.6875,4.96875 -8.74612,0 -16.27686,-2.05444 -19.71875,-5 z" style="fill:#565656;fill-opacity:1;stroke:none"/><path id="path6030" d="m 288.375,517.34375 c 0.14735,3.58398 8.93182,6.46875 19.71875,6.46875 10.75628,0 19.4918,-2.86766 19.6875,-6.4375 -0.21572,0.18349 -0.44078,0.35509 -0.6875,0.53125 -0.009,0.0117 -0.0216,0.0196 -0.0312,0.0312 -2.29214,2.77744 -9.90349,4.8125 -18.96875,4.8125 -9.12203,0 -16.78563,-2.07074 -19.03125,-4.875 -0.0249,-0.0179 -0.038,-0.0446 -0.0625,-0.0625 -0.21872,-0.15969 -0.43159,-0.30323 -0.625,-0.46875 z" style="fill:url(#linearGradient4573);fill-opacity:1;stroke:none"/><g id="g6071"><g id="g6067" transform="translate(0,-0.52315203)"><path style="fill:#565656;fill-opacity:1;stroke:none" id="path6022" d="m 288.375,529.09375 c 0.14735,3.58398 8.93182,6.46875 19.71875,6.46875 10.75628,0 19.4918,-2.86766 19.6875,-6.4375 -3.45152,2.93589 -10.95919,4.96875 -19.6875,4.96875 -8.74612,0 -16.27686,-2.05444 -19.71875,-5 z"/><path id="path6043" d="m 288.375,529.09375 c 0.14735,3.58398 8.93182,6.46875 19.71875,6.46875 10.75628,0 19.4918,-2.86766 19.6875,-6.4375 -0.0497,0.0422 -0.10543,0.0838 -0.15625,0.125 -1.24216,3.22677 -9.51064,5.71875 -19.53125,5.71875 -10.11275,0 -18.46774,-2.51121 -19.59375,-5.78125 -0.0401,-0.0317 -0.0863,-0.0607 -0.125,-0.0937 z" style="fill:url(#linearGradient6116);fill-opacity:1;stroke:none"/></g><path id="path6054" d="m 288.375,539.09375 c 0.14735,3.58398 8.93182,6.46875 19.71875,6.46875 10.75628,0 19.4918,-2.86766 19.6875,-6.4375 -0.0497,0.0422 -0.10543,0.0838 -0.15625,0.125 -1.24216,3.22677 -9.51064,5.71875 -19.53125,5.71875 -10.11275,0 -18.46774,-2.51121 -19.59375,-5.78125 -0.0401,-0.0317 -0.0863,-0.0607 -0.125,-0.0937 z" style="fill:url(#linearGradient6118);fill-opacity:1;stroke:none"/></g><path id="path6060" d="m 288.5,549.9375 c 1.12601,3.27004 9.481,5.78125 19.59375,5.78125 10.02061,0 18.28909,-2.49198 19.53125,-5.71875 -3.51634,2.86779 -10.92856,4.84375 -19.53125,4.84375 -8.64783,0 -16.10003,-2.01374 -19.59375,-4.90625 z" style="fill:#565656;fill-opacity:1;stroke:none"/></g></g><g id="layer2" transform="translate(0,6.5241715)" style="display:inline"><g id="g3902" transform="translate(3,-10.5)" style="filter:url(#filter3946)"><rect style="fill:url(#linearGradient3906);fill-opacity:1;fill-rule:evenodd;stroke:none" id="rect3882" width="140.101" height="140.101" x="49.7" y="69.274" rx="6.89" ry="6.89"/><rect id="rect3102" width="129.5" height="129.5" x="55" y="74.574" rx="3.543" ry="3.543" style="fill:url(#radialGradient3908);fill-opacity:1;fill-rule:evenodd;stroke:#fff;stroke-width:3.54330707;stroke-linecap:butt;stroke-linejoin:miter;stroke-miterlimit:4;stroke-opacity:1;stroke-dasharray:none"/></g></g><g style="display:inline" id="g4256" transform="translate(-285.86708,-504.16403)"><g id="g4258" clip-path="url(#clipPath4316)" transform="matrix(4.1992341,0,0,4.1992341,-906.55576,-1633.811)"><path style="fill:url(#linearGradient6112);fill-opacity:1;stroke:none" id="path4264" d="m 303.29832,521.77954 c 0,3.06841 -7.46231,5.55584 -16.66752,5.55584 -9.20522,0 -16.66752,-2.48743 -16.66752,-5.55584 0,-3.0684 7.4623,-5.55584 16.66752,-5.55584 9.20521,0 16.66752,2.48744 16.66752,5.55584 z" transform="matrix(1.1818182,0,0,1.1818182,-30.64896,-99.394391)"/><path style="fill:url(#linearGradient6114);fill-opacity:1;stroke:none" id="path4268" d="m 288.375,517.34375 c 0.14735,3.58398 8.93182,6.46875 19.71875,6.46875 10.75628,0 19.4918,-2.86766 19.6875,-6.4375 -0.21572,0.18349 -0.44078,0.35509 -0.6875,0.53125 -0.009,0.0117 -0.0216,0.0196 -0.0312,0.0312 -2.29214,2.77744 -9.90349,4.8125 -18.96875,4.8125 -9.12203,0 -16.78563,-2.07074 -19.03125,-4.875 -0.0249,-0.0179 -0.038,-0.0446 -0.0625,-0.0625 -0.21872,-0.15969 -0.43159,-0.30323 -0.625,-0.46875 z"/><g id="g4467"><g style="opacity:.72566373" id="g4461"><rect style="fill:url(#radialGradient4815);fill-opacity:1;fill-rule:evenodd;stroke:none" id="rect4437" width="6.399" height="10.272" x="302.143" y="529.789" rx=".169" ry=".202"/><rect id="rect4449" width="6.399" height="6.904" x="316.793" y="530.631" rx=".169" ry=".136" style="fill:url(#radialGradient4817);fill-opacity:1;fill-rule:evenodd;stroke:none"/><rect style="fill:url(#radialGradient4819);fill-opacity:1;fill-rule:evenodd;stroke:none" id="rect4453" width="6.399" height="8.925" x="311.984" y="542.726" rx=".169" ry=".175"/><rect id="rect4457" width="6.399" height="6.23" x="294.69" y="546.669" rx=".169" ry=".122" style="fill:url(#radialGradient4821);fill-opacity:1;fill-rule:evenodd;stroke:none"/><path style="fill:none;stroke:#009d11;stroke-width:.67503875;stroke-linecap:butt;stroke-linejoin:miter;stroke-miterlimit:4;stroke-opacity:1;stroke-dasharray:1.35007747,.67503873;stroke-dashoffset:0" id="path4549" d="m 308.49027,530.82858 8.33485,1.66697"/><path id="path4551" d="m 306.94237,539.87785 5.35811,4.2865" style="fill:none;stroke:#009d11;stroke-width:.67503875;stroke-linecap:butt;stroke-linejoin:miter;stroke-miterlimit:4;stroke-opacity:1;stroke-dasharray:1.35007747,.67503873;stroke-dashoffset:0"/><path style="fill:none;stroke:#009d11;stroke-width:.67503875;stroke-linecap:butt;stroke-linejoin:miter;stroke-miterlimit:4;stroke-opacity:1;stroke-dasharray:1.35007747,.67503873;stroke-dashoffset:0" id="path4553" d="m 320.75441,537.61553 -4.76278,5.11999"/><path id="path4555" d="m 311.82421,547.85549 -10.71624,2.14326" style="fill:none;stroke:#009d11;stroke-width:.67503875;stroke-linecap:butt;stroke-linejoin:miter;stroke-miterlimit:4;stroke-opacity:1;stroke-dasharray:1.35007747,.67503873;stroke-dashoffset:0"/><path style="fill:none;stroke:#009d11;stroke-width:.67503875;stroke-linecap:butt;stroke-linejoin:miter;stroke-miterlimit:4;stroke-opacity:1;stroke-dasharray:1.35007747,.67503873;stroke-dashoffset:0" id="path4557" d="m 302.41773,531.66206 -4.52463,0.8335"/><path id="path4561" d="m 308.84747,522.97 -2.50045,6.6679" style="fill:none;stroke:#009d11;stroke-width:.67503875;stroke-linecap:butt;stroke-linejoin:miter;stroke-miterlimit:4;stroke-opacity:1;stroke-dasharray:1.35007747,.67503873;stroke-dashoffset:0"/></g><g id="g4359"><g id="g4272" transform="translate(0,-0.52315203)" style="fill:url(#radialGradient4825);fill-opacity:1"><path id="path4276" d="m 288.375,529.09375 c 0.14735,3.58398 8.93182,6.46875 19.71875,6.46875 10.75628,0 19.4918,-2.86766 19.6875,-6.4375 -0.0497,0.0422 -0.10543,0.0838 -0.15625,0.125 -1.24216,3.22677 -9.51064,5.71875 -19.53125,5.71875 -10.11275,0 -18.46774,-2.51121 -19.59375,-5.78125 -0.0401,-0.0317 -0.0863,-0.0607 -0.125,-0.0937 z" style="fill:url(#radialGradient4823);fill-opacity:1;stroke:none"/></g><path id="path4278" d="m 288.375,539.09375 c 0.14735,3.58398 8.93182,6.46875 19.71875,6.46875 10.75628,0 19.4918,-2.86766 19.6875,-6.4375 -0.0497,0.0422 -0.10543,0.0838 -0.15625,0.125 -1.24216,3.22677 -9.51064,5.71875 -19.53125,5.71875 -10.11275,0 -18.46774,-2.51121 -19.59375,-5.78125 -0.0401,-0.0317 -0.0863,-0.0607 -0.125,-0.0937 z" style="fill:url(#radialGradient4827);fill-opacity:1;stroke:none"/><path style="fill:url(#radialGradient4829);fill-opacity:1;stroke:none" id="path4280" d="m 288.5,549.9375 c 1.12601,3.27004 9.481,5.78125 19.59375,5.78125 10.02061,0 18.28909,-2.49198 19.53125,-5.71875 -3.51634,2.86779 -10.92856,4.84375 -19.53125,4.84375 -8.64783,0 -16.10003,-2.01374 -19.59375,-4.90625 z"/></g></g><use id="use4523" width="186.693" height="206.074" x="0" y="0" xlink:href="#g4467" style="filter:url(#filter4537)"/></g></g></svg>