<svg xmlns="http://www.w3.org/2000/svg" xmlns:svg="http://www.w3.org/2000/svg" xmlns:xlink="http://www.w3.org/1999/xlink" id="svg2" width="2026.606" height="1360.381" version="1.1"><title id="title4154">dbqf icon</title><defs id="defs4"><linearGradient id="linearGradient3794"><stop style="stop-color:#fff;stop-opacity:1" id="stop3796" offset="0"/><stop style="stop-color:#ddd;stop-opacity:1" id="stop3798" offset="1"/></linearGradient><linearGradient id="linearGradient4140"><stop style="stop-color:#f5f5f5;stop-opacity:1" id="stop4142" offset="0"/><stop id="stop4148" offset=".917" style="stop-color:#f5f5f5;stop-opacity:1"/><stop style="stop-color:#d2d2d2;stop-opacity:1" id="stop4144" offset="1"/></linearGradient><linearGradient id="linearGradient3824" x1="1361.969" x2="1640.406" y1="536.422" y2="536.422" gradientUnits="userSpaceOnUse" xlink:href="#linearGradient3794"/><linearGradient id="linearGradient3832" x1="-755.339" x2="-685.242" y1="1510.264" y2="1510.264" gradientUnits="userSpaceOnUse" xlink:href="#linearGradient3794"/><radialGradient id="radialGradient3840" cx="497.33" cy="318.734" r="260.188" fx="497.33" fy="318.734" gradientTransform="matrix(1,0,0,0.25280375,0,166.56577)" gradientUnits="userSpaceOnUse" xlink:href="#linearGradient4140"/></defs><metadata id="metadata7"/><g id="layer1" transform="translate(-26.09998,336.40545)" style="display:inline"><g id="g3997" transform="translate(-113.90002,-47.878173)" style="fill:none"><path id="rect2985" d="m 500,180 c -138.07118,0 -250,31.34007 -250,70 0,1.30338 0.12384,2.58918 0.375,3.875 l 0,492.25 C 250.12384,747.41082 250,748.69662 250,750 c 0,38.65993 111.92882,70 250,70 138.07118,0 250,-31.34007 250,-70 0,-0.12518 -0.0289,-0.24997 -0.0312,-0.375 l 0.40625,0 0,-500 -0.40625,0 C 749.24714,211.13775 637.6241,180 500,180 z" transform="translate(0,52.362153)" style="color:#000;fill:url(#radialGradient3840);fill-opacity:1;stroke:#000;stroke-width:20;stroke-miterlimit:4;stroke-opacity:1;stroke-dasharray:none;stroke-dashoffset:0;marker:none;visibility:visible;display:inline;overflow:visible;enable-background:accumulate"/><path id="path3755" d="m 749.99998,302.36215 c 0,38.65993 -111.92881,70 -249.99998,70 -138.07119,0 -250,-31.34007 -250,-70" style="color:#000;fill:none;stroke:#000;stroke-width:20;stroke-miterlimit:4;stroke-opacity:1;stroke-dasharray:none;marker:none;visibility:visible;display:inline;overflow:visible;enable-background:accumulate"/><path id="path3755-7" d="m 749.99998,427.36215 c 0,38.65994 -111.92881,70 -249.99999,70 -138.07118,0 -249.99999,-31.34006 -249.99999,-70" style="color:#000;fill:none;stroke:#000;stroke-width:10;stroke-miterlimit:4;stroke-opacity:1;marker:none;visibility:visible;display:inline;overflow:visible;enable-background:accumulate"/><path id="path3755-4" d="m 749.99998,552.36215 c 0,38.65994 -111.92881,70 -249.99999,70 -138.07118,0 -249.99999,-31.34006 -249.99999,-70" style="color:#000;fill:none;stroke:#000;stroke-width:10;stroke-miterlimit:4;stroke-opacity:1;marker:none;visibility:visible;display:inline;overflow:visible;enable-background:accumulate"/><path id="path3755-0" d="m 749.99998,677.36215 c 0,38.65994 -111.92881,70 -249.99999,70 -138.07118,0 -249.99999,-31.34006 -249.99999,-70" style="color:#000;fill:none;stroke:#000;stroke-width:10;stroke-miterlimit:4;stroke-opacity:1;marker:none;visibility:visible;display:inline;overflow:visible;enable-background:accumulate"/><path id="path3755-9" d="m 680.18489,417.89704 c -16.61945,4.65345 -36.40895,8.41928 -58.3837,11.02175" style="color:#000;fill:none;stroke:#000;stroke-width:20;stroke-linecap:round;stroke-miterlimit:4;stroke-opacity:1;stroke-dasharray:none;marker:none;visibility:visible;display:inline;overflow:visible;enable-background:accumulate"/></g></g><g id="layer4" transform="translate(-26.09998,-111.2324)" style="display:inline"><path style="fill:#fff;fill-opacity:1;stroke:#000;stroke-width:20;stroke-miterlimit:4;stroke-opacity:1;stroke-dasharray:none" id="path4123-1" d="m 361.49103,656.52262 -39.25237,52.94636 46.46702,61.20088 -59.599,155.56348 99.58667,154.79836 -43.26324,154.3082 107.81891,-158.1606 -91.41137,-147.91551 84.60028,-165.15994 -50.58685,-56.06346 23.8178,-51.0127 z"/></g><g id="layer2" transform="translate(-26.09998,388.7676)" style="display:inline"><g id="g4118" transform="translate(-1133.4115,3.8578643)"><rect id="rect4004-1" width="50.097" height="662.882" x="-745.339" y="1178.822" transform="matrix(-0.49562243,-0.86853809,0.86853809,-0.49562243,0,0)" style="color:#000;fill:url(#linearGradient3832);fill-opacity:1;stroke:#000;stroke-width:20;stroke-linecap:butt;stroke-miterlimit:4;stroke-opacity:1;stroke-dasharray:none;stroke-dashoffset:0;marker:none;visibility:visible;display:inline;overflow:visible;enable-background:accumulate"/><path id="rect4006-7" d="m 1458.8125,413.28125 -86.8437,49.5625 c 0,0 42.3985,73.36941 63,110.40625 15.3043,27.51378 21.3565,60.04077 23.5312,86.3125 l 130,0 c 28.7051,-25.9541 41.9062,-52.25 41.9062,-52.25 0,0 -76.8121,-29.1803 -108.5624,-83.625 -25.2243,-43.25402 -63.0313,-110.40625 -63.0313,-110.40625 z" transform="translate(0,-500)" style="color:#000;fill:url(#linearGradient3824);fill-opacity:1;stroke:#000;stroke-width:20;stroke-linecap:butt;stroke-miterlimit:4;stroke-opacity:1;stroke-dashoffset:0;marker:none;visibility:visible;display:inline;overflow:visible;enable-background:accumulate"/></g></g><g id="layer5" transform="translate(-26.09998,-111.2324)" style="display:inline"><text style="font-size:700px;font-style:normal;font-variant:normal;font-weight:200;font-stretch:normal;text-align:start;line-height:125%;letter-spacing:0;word-spacing:0;writing-mode:lr-tb;text-anchor:start;fill:#000;fill-opacity:1;stroke:none;font-family:Dosis;-inkscape-font-specification:Dosis Ultra-Light" id="text4148" x="775.835" y="1205.714" xml:space="preserve"><tspan id="tspan4150" x="775.835" y="1205.714" style="fill-opacity:1;fill:#000">dbqf</tspan></text></g></svg>